<svg xmlns="http://www.w3.org/2000/svg" viewBox="0 0 512 512" role="img" aria-label="Kakeklar appikon">
  <rect width="512" height="512" rx="104" fill="#D7264A"/>
  <path d="M90 126h28M104 112v28" stroke="#F7F2EA" stroke-width="14" stroke-linecap="round" opacity=".85"/>
  <path d="M405 94h30M420 79v30" stroke="#E3A52A" stroke-width="13" stroke-linecap="round"/>
  <path d="M88 354h26M101 341v26" stroke="#6CC4E8" stroke-width="12" stroke-linecap="round"/>
  <rect x="157" y="260" width="198" height="141" rx="30" fill="#F7F2EA"/>
  <path d="M157 288c0-21 17-38 38-38h122c21 0 38 17 38 38v13c-23 0-23 19-46 19s-23-19-46-19-23 19-46 19-23-19-46-19c-10 0-15 4-14-13z" fill="#fff"/>
  <path d="M157 313c13 0 18 16 35 16s22-16 40-16 22 16 40 16 22-16 40-16 22 16 43 16v-22c-23 0-23 19-46 19s-23-19-46-19-23 19-46 19-23-19-46-19c-7 0-11 2-14 6z" fill="#A4122F"/>
  <path d="M157 364h198v7c0 17-13 30-30 30H187c-17 0-30-13-30-30z" fill="#FBE4E6"/>
  <rect x="240" y="167" width="32" height="90" rx="12" fill="#6CC4E8"/>
  <path d="M256 95c26 25 34 46 34 63a34 34 0 1 1-68 0c0-17 8-38 34-63z" fill="#E3A52A"/>
  <path d="M256 133c11 12 15 22 15 30a15 15 0 1 1-30 0c0-8 4-18 15-30z" fill="#F7F2EA"/>
  <rect x="200" y="349" width="30" height="10" rx="5" fill="#7AD3A0" transform="rotate(19 215 354)"/>
  <rect x="281" y="350" width="30" height="10" rx="5" fill="#E3A52A" transform="rotate(-17 296 355)"/>
  <circle cx="367" cy="365" r="69" fill="#7AD3A0"/>
  <path d="M335 365l23 24 43-55" fill="none" stroke="#fff" stroke-width="22" stroke-linecap="round" stroke-linejoin="round"/>
</svg>
