<svg xmlns="http://www.w3.org/2000/svg" width="1200" height="630" viewBox="0 0 1200 630" role="img" aria-label="Kakeklar sosialt delingsbilde">
  <rect width="1200" height="630" fill="#FFF8E7"/>
  <circle cx="1038" cy="108" r="44" fill="#FFE3EF"/>
  <circle cx="1100" cy="162" r="25" fill="#6CC4E8"/>
  <circle cx="934" cy="526" r="34" fill="#FFC93C"/>
  <path d="M88 130h34M105 113v34" stroke="#FF6B9D" stroke-width="14" stroke-linecap="round"/>
  <path d="M1080 438h34M1097 421v34" stroke="#7AD3A0" stroke-width="14" stroke-linecap="round"/>
  <rect x="87" y="415" width="42" height="13" rx="6.5" fill="#6CC4E8" transform="rotate(-18 108 421.5)"/>
  <rect x="988" y="278" width="45" height="13" rx="6.5" fill="#FF6B9D" transform="rotate(24 1010.5 284.5)"/>
  <g transform="translate(118 82) scale(.82)">
    <rect width="512" height="512" rx="104" fill="#FF6B9D"/>
    <path d="M90 126h28M104 112v28" stroke="#FFF8E7" stroke-width="14" stroke-linecap="round" opacity=".85"/>
    <path d="M405 94h30M420 79v30" stroke="#FFC93C" stroke-width="13" stroke-linecap="round"/>
    <path d="M88 354h26M101 341v26" stroke="#6CC4E8" stroke-width="12" stroke-linecap="round"/>
    <rect x="157" y="260" width="198" height="141" rx="30" fill="#FFF8E7"/>
    <path d="M157 288c0-21 17-38 38-38h122c21 0 38 17 38 38v13c-23 0-23 19-46 19s-23-19-46-19-23 19-46 19-23-19-46-19c-10 0-15 4-14-13z" fill="#fff"/>
    <path d="M157 313c13 0 18 16 35 16s22-16 40-16 22 16 40 16 22-16 40-16 22 16 43 16v-22c-23 0-23 19-46 19s-23-19-46-19-23 19-46 19-23-19-46-19c-7 0-11 2-14 6z" fill="#E0457E"/>
    <path d="M157 364h198v7c0 17-13 30-30 30H187c-17 0-30-13-30-30z" fill="#FFE3EF"/>
    <rect x="240" y="167" width="32" height="90" rx="12" fill="#6CC4E8"/>
    <path d="M256 95c26 25 34 46 34 63a34 34 0 1 1-68 0c0-17 8-38 34-63z" fill="#FFC93C"/>
    <path d="M256 133c11 12 15 22 15 30a15 15 0 1 1-30 0c0-8 4-18 15-30z" fill="#FFF8E7"/>
    <rect x="200" y="349" width="30" height="10" rx="5" fill="#7AD3A0" transform="rotate(19 215 354)"/>
    <rect x="281" y="350" width="30" height="10" rx="5" fill="#FFC93C" transform="rotate(-17 296 355)"/>
    <circle cx="367" cy="365" r="69" fill="#7AD3A0"/>
    <path d="M335 365l23 24 43-55" fill="none" stroke="#fff" stroke-width="22" stroke-linecap="round" stroke-linejoin="round"/>
  </g>
  <text x="585" y="250" fill="#2C2236" font-family="Segoe UI, Arial, sans-serif" font-size="106" font-weight="800" letter-spacing="-3">Kakeklar</text>
  <text x="590" y="338" fill="#E0457E" font-family="Segoe UI, Arial, sans-serif" font-size="31" font-weight="800">Riktig mengde til barnebursdagen</text>
  <text x="590" y="389" fill="#2C2236" font-family="Segoe UI, Arial, sans-serif" font-size="36" font-weight="700">– på to glidere.</text>
  <g transform="translate(598 455)">
    <path d="M0 34c0-19 15-34 34-34s34 15 34 34-15 34-34 34S0 53 0 34z" fill="#FFE3EF"/>
    <path d="M101 34c0-19 15-34 34-34s34 15 34 34-15 34-34 34-34-15-34-34z" fill="#6CC4E8"/>
    <path d="M202 34c0-19 15-34 34-34s34 15 34 34-15 34-34 34-34-15-34-34z" fill="#7AD3A0"/>
    <text x="19" y="48" fill="#2C2236" font-family="Segoe UI, Arial, sans-serif" font-size="37" font-weight="800">2</text>
    <path d="M122 35l12 12 25-31" fill="none" stroke="#fff" stroke-width="11" stroke-linecap="round" stroke-linejoin="round"/>
    <path d="M226 43h20" stroke="#fff" stroke-width="11" stroke-linecap="round"/>
  </g>
</svg>
